<svg xmlns="http://www.w3.org/2000/svg" viewBox="0 0 24 24" id="ab-inbev"><path fill="#F44336" d="M20.058 12.147c1.322-.262 2.956-1.03 2.956-3.039C23.014 7.223 21.449 6 18.296 6l-1.211.008h-3.383v.059c.419.248.522.957.544 1.674v3.71a19.48 19.48 0 0 0-3.639.447l-2.399-5.89H5.24l.003.059c.317.248.133.957-.135 1.674l-3.853 9.464c-.323.738-.73 1.494-1.255 1.736V19h2.815c.041-.074.862-1.46 2.737-2.875a13.662 13.662 0 0 1 3.685-1.963l1.24 3.043c.279.738.485 1.495.159 1.737l-.002.058h2.861l-2.198-5.405a18.026 18.026 0 0 1 2.948-.34v3.949c-.018.738-.121 1.495-.544 1.737V19h3.383v-.001l1.899-.004c2.905 0 5.016-1.048 5.016-3.703.001-2.603-2.69-3.128-3.941-3.145zm-15.44 2.42L7.01 8.693l1.546 3.795a15.5 15.5 0 0 0-3.938 2.079zm11.921-6.71c.001-.081.004-.163.011-.245.32-.018.614-.051.935-.051 2.429 0 3.195.581 3.195 1.773 0 1.67-1.807 2.034-3.577 2.034-.174 0-.214 0-.564-.029V7.857zm1.952 9.467c-.747 0-1.236-.035-1.952-.15v-4.08c.261-.031.545-.047.784-.047 2.3 0 4.233.23 4.233 2.244 0 1.22-.748 2.033-3.065 2.033z"></path></svg>
